<svg width="71.199219" height="40.000244" viewBox="0 0 71.1992 40.0002" fill="none" xmlns="http://www.w3.org/2000/svg" xmlns:xlink="http://www.w3.org/1999/xlink">
	<desc>
			Created with Pixso.
	</desc>
	<defs/>
	<path id="path" d="M18.8672 10.8765L18.8672 28.3752C18.8672 32.9031 16.2715 34.4934 12.457 34.4934C8.68359 34.4934 6.08594 32.9023 6.08594 28.3752L6.08594 10.8765L0 10.8765L0 28.7017C0 37.145 6.16797 40.0002 12.457 40.0002C18.7461 40.0002 24.9141 37.145 24.9141 28.7017L24.9141 10.8765L18.8672 10.8765ZM38.502 39.4297L38.502 24.7043C38.502 23.3989 38.4609 21.9717 38.3789 20.7888L51.6074 39.4294L57.3281 39.4294L57.3281 10.8765L51.2422 10.8765L51.2422 25.6016C51.2422 26.907 51.2832 28.3342 51.3652 29.5173L38.1367 10.8765L32.416 10.8765L32.416 39.4297L38.502 39.4297ZM65.1133 10.8765L65.1133 39.4294L71.1992 39.4294L71.1992 10.8765L65.1133 10.8765Z" fill-rule="evenodd" fill="#002757"/>
	<path id="polygon" d="M23.2344 0.533936L12.9336 14.4902L7.63477 8.38574L22.7715 0L23.2344 0.533936Z" fill-rule="evenodd" fill="#00BDC5"/>
</svg>
