<svg width="20.000000" height="20.000000" viewBox="0 0 20 20" fill="none" xmlns="http://www.w3.org/2000/svg" xmlns:xlink="http://www.w3.org/1999/xlink">
	<desc>
			Created with Pixso.
	</desc>
	<g clip-path="url(#clip119_792)">
		<path id="path" d="M2.62451 15.4434C2.62451 16.7402 2.70264 17.1763 3.39795 18.2367C3.48682 18.3717 3.50439 18.401 3.61377 18.5109C3.94824 18.8461 3.81836 18.8116 4.37793 19.2169C5.6001 20.1023 7.17285 20.2408 8.55957 19.612C9.13379 19.3517 9.77783 18.6347 10.8076 19.2371C11.7969 19.8161 12.123 19.9941 13.4331 19.9941C14.4429 19.9941 15.4409 19.4437 16.1528 18.7958L16.6006 18.2637C17.2666 17.254 17.3921 16.8044 17.3921 15.5326C17.3921 14.4606 16.749 13.3894 16.2021 12.8443C15.2598 11.9045 14.4175 11.9976 14.1914 10.9352C13.9556 9.82731 13.8521 9.24494 12.9331 8.31573C12.0635 7.43621 11.0254 7.14502 9.78564 7.14502C8.85791 7.14502 7.71826 7.67561 7.10498 8.2932C5.33008 10.0811 6.36914 11.275 5.01221 11.9936C4.75146 12.1317 4.62842 12.1992 4.39404 12.3554C4.20166 12.4839 4.02002 12.6371 3.8584 12.7997C3.53711 13.124 3.26953 13.4776 3.0542 13.9114C2.86865 14.2858 2.62451 14.9122 2.62451 15.4434Z" fill-rule="evenodd" fill="#00BEC7"/>
		<path id="path" d="M3.8252 2.86219C3.8252 3.73846 4.15332 4.58873 4.55029 5.07952C6.35938 7.31638 9.11816 5.83361 9.11816 3.30833C9.11816 1.69875 7.98047 0.00683594 6.44971 0.00683594C5.5625 0.00683594 5.04053 0.256373 4.48193 0.93308C4.14502 1.34068 3.8252 2.13255 3.8252 2.86219Z" fill-rule="evenodd" fill="#00BEC7"/>
		<path id="path" d="M10.8975 3.26367C10.8975 4.69838 11.9033 6.16364 13.2549 6.16364C14.2607 6.16364 14.8335 5.84716 15.4448 5.10352C16.6045 3.6939 16.3677 1.22869 14.8828 0.336816C14.0874 -0.141033 13.2295 -0.0863385 12.4395 0.348959C11.542 0.843618 10.8975 2.11921 10.8975 3.26367Z" fill-rule="evenodd" fill="#00BEC7"/>
		<path id="path" d="M0 7.90332C0 8.64009 0.282227 9.23601 0.685547 9.75862C1.15479 10.3661 2.28223 10.8569 3.29248 10.3582C4.77197 9.62795 4.89795 7.52688 3.85938 6.39686C3.4458 5.94691 2.8252 5.62793 2.0459 5.62793C1.28857 5.62793 0.486328 6.3364 0.208496 6.99715C0.125977 7.194 0 7.65158 0 7.90332Z" fill-rule="evenodd" fill="#00BEC7"/>
		<path id="path" d="M15.479 8.12637C15.479 9.09271 15.8716 9.92326 16.6641 10.3284C17.3066 10.6568 17.9009 10.6607 18.5342 10.3429C19.1323 10.0424 19.5498 9.64036 19.7881 9.01313C20.1387 8.08924 20.082 7.07388 19.4053 6.37424C17.6938 4.60425 15.479 6.28974 15.479 8.12637Z" fill-rule="evenodd" fill="#00BEC7"/>
	</g>
	<defs>
		<clipPath id="clip119_792">
			<rect id="животные" width="20.000000" height="20.000000" fill="white"/>
		</clipPath>
	</defs>
</svg>
