<svg width="21.000000" height="20.999887" viewBox="0 0 21 20.9999" fill="none" xmlns="http://www.w3.org/2000/svg" xmlns:xlink="http://www.w3.org/1999/xlink">
	<desc>
			Created with Pixso.
	</desc>
	<path id="path" d="M10.5391 18.5389C9.36572 18.5389 8.68652 17.7483 8.54346 16.716C8.43945 15.9652 9.35547 15.7809 9.6377 16.2412C9.80469 16.5144 9.69629 17.3406 10.4985 17.3406C10.856 17.3406 11.1689 17.0618 11.2261 16.7647C11.3047 16.3583 11.269 15.996 11.9341 15.996C12.9741 15.996 12.4028 18.5389 10.5391 18.5389ZM12.0576 12.6738C12.0576 12.1001 12.2573 11.6591 12.5791 11.3495C12.8872 11.0528 13.3135 10.8894 13.8335 10.8374C14.6406 10.7567 15.75 11.4531 15.75 12.4687C15.75 12.7928 15.6963 13.248 15.1758 13.248C14.1816 13.248 15.0122 12.0585 13.8628 12.0585C13.106 12.0585 13.3657 12.7863 13.0947 13.0547C12.9409 13.2075 12.6943 13.2862 12.4438 13.1909C12.2295 13.1093 12.0576 12.8701 12.0576 12.6738ZM5.24658 12.7148C5.24658 10.1633 8.93896 10.3043 8.93896 12.6327C8.93896 13.3433 7.85498 13.5437 7.74609 12.6767C7.63135 11.7606 6.63916 11.9899 6.47998 12.43C6.38232 12.6984 6.46924 12.8761 6.25537 13.0672C5.83447 13.4444 5.24658 13.1079 5.24658 12.7148ZM8.32373 2.37888C8.32373 3.98246 8.83984 4.13916 8.93896 4.51171C8.15576 4.51171 6.52197 5.3042 5.86963 5.74979C4.23633 6.86519 3.01904 8.50876 2.48877 10.409L2.37646 10.8708C2.31787 11.0536 2.21533 10.9966 1.96484 10.9929C1.41602 10.9847 1.2251 10.9924 0.71582 11.3439C-0.131836 11.9287 -0.312988 13.3802 0.644531 14.1568C1.1582 14.5732 1.62207 14.6015 2.41553 14.6015C2.42139 14.8724 2.73193 15.712 2.83936 15.9413C3.26416 16.8438 3.57275 17.3809 4.19189 18.1168C5.58838 19.7768 7.9917 20.9999 10.1699 20.9999C11.7026 20.9999 12.3462 20.9044 13.7163 20.3615C14.6826 19.9786 15.1611 19.5852 15.897 19.0139C16.0674 18.8815 16.1704 18.7458 16.3438 18.5993C16.4419 18.5164 16.4795 18.458 16.561 18.3655C17.4316 17.3785 17.5322 17.236 18.1436 15.9688C18.252 15.7441 18.5752 14.8683 18.5811 14.6015C19.3745 14.6015 19.8384 14.5732 20.3516 14.1568C21.4355 13.2781 21.1328 11.4557 19.6499 11.0312C19.4204 10.9655 18.9663 10.9921 18.6631 10.9921L18.4326 10.1559C18.1416 9.2795 17.8506 8.71195 17.3501 7.95683C16.7852 7.1037 16 6.35701 15.1514 5.76639C13.8345 4.85009 12.6489 4.56548 11.1011 4.36026C10.4834 4.27835 10.0479 4.02723 9.77246 3.47355C9.48535 2.89592 9.43311 2.14796 9.93311 1.6501C10.6836 0.903938 11.5903 1.28549 11.7456 1.87007C11.8252 2.16942 11.7422 2.78905 12.4678 2.78905C12.7856 2.78905 13.042 2.50863 13.042 2.0918C13.042 1.01568 12.064 0 10.9907 0C10.1694 0 9.64209 0.179191 9.07227 0.748496C8.66211 1.15856 8.32373 1.73351 8.32373 2.37888Z" fill-rule="evenodd" fill="#00BEC7"/>
	<defs/>
</svg>
