<svg width="175.999512" height="102.000320" viewBox="0 0 176 102" fill="none" xmlns="http://www.w3.org/2000/svg" xmlns:xlink="http://www.w3.org/1999/xlink">
	<desc>
			Created with Pixso.
	</desc>
	<defs/>
	<path id="path" d="M0.281494 102L176 102L176 101.557L158.726 101.557C158.726 101.557 155.124 99.8607 153.314 99.972C153.668 99.3722 152.673 99.3502 151.725 99.0176C150.774 98.6856 150.774 98.6856 150.774 98.6856C150.774 98.6856 152.695 98.9062 153.757 98.0635C154.816 97.2186 154.573 95.9764 154.243 95.9764C153.911 95.9764 153.6 96.554 153.36 96.5096C153.117 96.4647 150.509 95.3992 149.625 93.6444C151.46 94.9329 154.354 93.6444 154.354 93.6444C154.354 93.6444 153.271 93.3343 152.652 93.4012C154.751 92.8908 155.124 91.8918 155.124 91.8918C155.124 91.8918 152.83 92.6454 151.922 92.2018C151.017 91.7582 150.663 91.3813 150.663 91.3813C150.663 91.3813 151.922 91.5373 152.941 91.136C149.361 90.9151 148.055 89.3388 147.88 88.6502C147.705 87.9631 147.261 87.2518 147.548 87.1407C147.837 87.0291 148.674 87.7626 150.155 87.1407C149.906 86.8589 149.17 86.7271 149.17 86.7271C149.17 86.7271 150.509 86.2389 150.509 85.6897C150.509 85.1428 149.376 85.6612 148.933 85.4691C148.493 85.2764 147.504 84.4172 147.504 84.1803C147.504 83.9433 148.757 83.7224 148.668 83.0112C148.582 82.3021 147.504 82.9079 146.99 82.5391C146.473 82.1684 147.197 81.5181 146.636 80.7926C147.209 80.6144 147.209 80.1262 147.107 79.9192C147.003 79.7107 146.415 79.3865 146.473 78.8231C146.532 78.2619 146.547 78.2762 146.769 78.2904C146.99 78.3046 146.917 77.8325 146.71 77.7573C146.504 77.6847 145.827 77.2994 145.811 77.0178C145.796 76.7363 145.679 75.8487 145.753 75.3017C145.827 74.7526 145.574 72.9634 145.516 72.9331C145.457 72.9028 145.251 74.3677 145.266 75.3159C145.282 76.262 144.958 76.7078 144.912 77.2405C144.869 77.7718 145.06 78.4239 144.958 78.7196C144.854 79.0157 144.457 79.8749 144.678 80.2736C144.897 80.673 145.088 80.7175 144.768 80.8797C144.441 81.0436 143.721 81.3982 143.881 81.7527C144.044 82.1094 144.25 82.0649 144.25 82.0649C144.25 82.0649 143.367 82.5531 142.717 82.6261C142.071 82.701 142.129 83.3231 142.616 83.5601C143.102 83.7952 143.573 84.152 143.779 84.152C143.986 84.152 144.367 83.8702 144.472 83.9146C144.574 83.9592 144.709 84.788 144.158 85.1649C143.607 85.5417 143.607 85.254 143.185 85.564C142.767 85.8762 142.887 86.2307 142.468 86.2753C142.049 86.3198 141.849 86.5853 141.926 86.8182C142.003 87.0512 142.656 87.2075 142.967 87.2075C143.275 87.2075 143.903 87.1527 143.903 87.1527C143.903 87.1527 143.518 88.0725 142.212 88.9174C143.74 89.0835 144.546 87.8618 144.546 87.8618C144.546 87.8618 143.527 90.1756 142.055 90.8848C140.584 91.596 139.891 91.4036 139.833 91.6993C139.082 91.7439 138.918 91.6548 138.918 91.6548C138.918 91.6548 139.552 92.2463 140.599 92.4245C141.643 92.6031 142.16 92.4694 142.16 92.4694C142.16 92.4694 141.347 92.9576 140.67 92.9415C141.981 93.3566 143.013 92.7791 143.013 92.7791C143.013 92.7791 142.188 93.9343 141.144 93.8898C141.526 94.4955 142.028 94.467 142.028 94.467C142.028 94.467 141.32 96.9978 137.961 96.4647C139.817 96.1547 139.574 95.1195 139.934 94.7489C140.685 93.9788 140.79 93.3121 140.525 93.2819C140.26 93.2533 136.637 94.615 134.735 93.387C136.622 93.7277 138.093 93.0306 138.093 93.0306C138.093 93.0306 136.268 92.7509 135.914 92.4085C135.56 92.07 136.563 91.8472 137.225 91.906C137.89 91.9648 139.654 91.3003 140.051 90.6335C140.448 89.9672 139.833 89.1971 139.833 89.1971C139.833 89.1971 141.098 88.7086 141.23 87.9104C139.331 88.9619 138.287 89.0938 137.357 88.7086C136.428 88.3237 136.178 88.5161 135.664 88.354C135.15 88.1922 134.356 87.3635 134.356 87.3635C134.356 87.3635 134.839 87.0067 134.987 86.6237C136.517 87.1849 137.872 86.9034 138.3 86.1052C138.728 85.3048 138.093 84.6684 137.357 84.9806C136.622 85.2906 134.605 83.4995 134.605 83.4995C134.605 83.4995 136.797 83.8257 138.404 82.7011C137.474 82.8044 136.976 82.8187 136.976 82.8187C136.976 82.8187 138.727 81.9617 138.743 80.3913C138.774 80.0956 138.078 80.7177 137.062 81.0134C136.046 81.3093 133.78 80.067 133.78 80.067C133.78 80.067 135.606 79.3116 135.606 78.187C135.606 77.0624 134.267 77.721 133.448 77.1657C132.632 76.6106 132.336 76.3676 132.364 76.262C132.395 76.1587 133.787 75.642 134.417 73.9442C133.355 74.2644 132.992 74.9208 132.992 74.9208C132.992 74.9208 133.014 72.1349 132.946 71.3791C132.881 70.6255 132.152 70.6255 132.152 70.291C132.152 69.9587 132.025 66.8953 131.305 66.9398C130.585 66.9844 131.01 68.3014 131.247 68.5526C131.48 68.8038 131.262 69.3954 130.951 69.8999C130.643 70.4024 130.612 70.9939 130.612 71.2455C130.612 71.4967 130.055 72.074 130.055 72.2383C130.055 72.4004 130.539 73.2289 130.394 73.7762C130.246 74.3251 129.978 73.6283 130.098 74.7383C130.215 75.8487 130.893 75.3748 130.803 75.7315C130.714 76.086 130.249 75.8853 129.871 76.1021C129.495 76.319 129.495 76.5358 129.27 76.5396C129.042 76.5457 127.873 76.3796 127.608 76.7079C127.343 77.0342 127.365 77.2508 127.365 77.2508C127.365 77.2508 126.894 77.0464 126.592 76.6575C126.906 77.7898 127.346 78.045 127.75 78.2214C128.153 78.3999 128.651 78.3389 128.861 78.5497C128.624 78.8436 127.623 78.8779 127.623 78.8779C127.623 78.8779 128.319 79.1657 129.249 79.1595C130.175 79.1535 130.92 79.1434 130.92 79.1434C130.92 79.1434 130.003 79.7491 129.184 80.0898C128.368 80.4301 128.433 80.6875 127.962 80.7177C127.491 80.748 127.226 80.7927 127.146 81.1329C127.063 81.4735 127.426 81.976 128.22 82.0873C129.015 82.1987 130.2 82.1096 130.2 82.1096C130.2 82.1096 130.723 82.3528 130.268 82.7153C129.809 83.0779 129.046 83.0476 128.729 83.3963C128.411 83.7447 128.153 83.8338 127.623 83.8338C127.094 83.8338 126.998 84.158 126.601 84.1803C126.204 84.2026 125.628 84.1803 125.453 84.5147C125.274 84.847 125.385 85.2826 125.385 85.2826C125.385 85.2826 124.449 85.1793 124.111 84.9725C124.797 85.7284 126.152 86.5043 127.226 86.4455C128.301 86.3867 128.962 86.2673 128.962 86.2673C128.962 86.2673 129.156 86.6664 129.449 86.6664C128.612 87.2155 128.479 87.6004 127.728 87.6289C126.977 87.6592 124.148 87.6289 122.852 86.474C123.957 88.2508 125.21 88.6217 125.21 88.6217C125.21 88.6217 123.84 88.5771 123.603 89.1687C123.366 89.7602 123.793 90.678 124.871 90.826C125.946 90.9739 126.062 91.4317 126.475 91.6245C126.887 91.8169 128.581 91.9202 128.581 91.9202C128.581 91.9202 127.956 93.0912 126.761 93.1116C125.567 93.1339 121.374 91.9585 121.374 91.9585C121.374 91.9585 122.852 93.6221 124.132 94.1325C121.417 94.1124 114.17 91.8026 112.868 90.2486C115.165 90.5809 119.582 90.0927 121.349 89.3387C115.583 88.8951 108.869 86.3866 107.213 84.7658C111.541 86.097 115.075 84.8549 115.075 84.8549C115.075 84.8549 112.317 83.1672 110.436 82.3241C112.932 82.3019 114.37 83.4994 115.583 83.8113C116.799 84.1216 122.433 84.5875 124.043 83.6777C125.656 82.7681 126.74 81.4125 126.41 81.1469C126.078 80.8796 124.708 81.6574 122.787 81.5238C120.866 81.3902 118.745 80.0366 117.242 79.7043C115.74 79.3702 115.343 78.1058 115.343 78.1058C115.343 78.1058 115.672 78.2394 117.482 77.5953C119.296 76.9509 120.422 77.4168 121.682 76.9287C122.941 76.4405 124.973 75.3747 124.465 74.6655C123.957 73.9543 121.571 75.3078 120.001 75.1092C118.434 74.9087 116.069 74.6879 114.635 74.1325C113.2 73.5775 111.741 73.7316 110.503 73.0444C109.269 72.3558 108.293 71.6018 107.012 71.3345C105.732 71.069 104.562 68.5383 104.562 68.5383C104.562 68.5383 106.283 68.6701 106.902 68.2262C107.52 67.7825 107.499 67.4057 107.499 67.4057C107.499 67.4057 110.682 68.5606 112.535 68.6924C114.392 68.826 114.9 68.2933 115.629 68.0925C116.359 67.8942 117.815 67.8049 117.904 67.2275C117.99 66.6499 111.719 64.4982 111.719 64.4982C111.719 64.4982 115.232 64.5854 118.101 63.7423C115.053 63.7647 109.583 63.1954 106.135 61.3292C102.69 59.4652 101.954 58.0448 101.954 58.0448C101.954 58.0448 103.897 58.3267 104.362 57.8382C104.827 57.3478 102.573 55.417 102.573 55.417C102.573 55.417 104.805 56.1728 106.218 56.1505C107.631 56.1282 109.842 56.1951 111.809 53.8853C110.393 53.6199 108.604 52.5764 108.604 52.5764C108.604 52.5764 113.551 52.0659 115.518 48.5362C114.081 49.5129 112.228 49.5352 111.255 49.1806C110.285 48.8239 108.801 48.202 107.831 48.2911C106.858 48.3802 105.646 46.9821 104.694 46.9821C103.743 46.9821 103.567 47.6265 101.844 47.4035C100.123 47.1808 99.2822 46.5607 99.2822 46.3157C99.2822 46.0725 100.04 45.0798 98.6694 43.9409C97.3027 42.8002 96.1082 40.5065 96.2869 40.3141C96.4622 40.1216 97.198 40.8468 97.9922 40.8187C98.7896 40.788 99.8054 41.3496 100.631 41.3799C101.456 41.4102 101.631 41.0254 102.441 41.159C103.25 41.2908 103.721 41.3657 105.208 41.2623C106.698 41.159 107.994 39.3071 107.994 39.3071C107.994 39.3071 106.889 39.8259 105.328 39.678C103.764 39.5301 102.721 39.0417 102.721 39.0417C102.721 39.0417 105.033 39.0862 105.959 37.8586C104.577 38.1989 100.32 37.3843 99.5254 36.9242C98.728 36.4664 98.0969 33.7736 96.0774 33.093C94.061 32.4123 93.8115 31.3162 93.8115 31.3162C93.8115 31.3162 96.6838 31.9522 98.1831 30.694C99.6855 29.438 99.5408 27.9424 99.1436 27.9121C98.7463 27.8836 98.7002 28.386 97.8752 28.2827C97.0503 28.1794 96.5208 26.9496 96.5208 26.9496L97.5952 27.0387C97.5952 27.0387 97.198 25.9144 95.0029 25.7662C92.811 25.6183 93.6055 24.9074 93.353 24.3458C93.1035 23.7828 93.7686 23.724 94.061 23.6349C94.3564 23.5458 96.2283 23.0127 97.3457 21.9918C98.4663 20.9705 98.2295 19.1511 97.8445 19.1511C97.4629 19.1511 97.3457 19.7426 96.77 19.698C96.1975 19.6535 95.4155 19.4023 95.1045 18.855C94.7966 18.308 93.8394 18.5735 93.3098 18.855C92.7803 19.1368 92.4695 19.461 92.1892 19.1957C91.9092 18.928 91.5706 18.1744 91.5427 17.4792C91.512 16.7825 92.4109 16.6204 92.9126 15.4655C93.4114 14.3106 93.2822 11.6177 93.3252 10.8641C93.3713 10.1083 94.1348 8.61307 93.7378 7.59181C93.3406 6.57048 91.792 4.4838 91.5706 3.56772C91.3518 2.65013 90.8931 0 90.8931 0C90.8931 0 90.5269 3.10802 90.4961 4.58905C90.4683 6.06813 90.2898 8.85007 90.0249 9.76802C89.7603 10.6855 89.9973 11.7799 89.5261 12.9063C89.0522 14.0308 88.4365 15.1693 88.655 16.2351C88.8767 17.301 89.4739 17.5664 89.4739 17.5664C89.4739 17.5664 89.6494 18.0323 89.3848 18.3C89.1199 18.5654 85.364 19.1752 84.2219 18.5289C82.8396 17.7449 82.3809 16.5027 82.3809 16.5027C82.3809 16.5027 82.2517 17.9677 82.8704 19.3292C83.4861 20.6908 84.5173 21.5193 84.5173 21.5193C84.5173 21.5193 84.2219 22.3321 85.05 22.8202C85.875 23.3084 87.9778 23.4423 87.9778 23.4423C87.9778 23.4423 87.1987 25.5433 86.5339 25.9891C85.875 26.4328 84.7698 25.8555 83.8247 26.5948C82.8828 27.3346 81.8821 27.217 81.1741 28.001C80.4692 28.7852 80.7185 29.2735 80.9248 29.2735C81.1311 29.2735 81.7776 28.8299 82.2517 29.0811C82.7195 29.3323 82.9414 29.7924 83.6184 30.088C84.2959 30.3838 85.0039 30.4587 85.0039 30.4587C85.0039 30.4587 83.5168 32.1748 82.4116 32.3369C85.1084 32.9288 86.5801 30.6796 87.3467 30.9896C88.113 31.3018 87.6975 33.0036 86.343 34.1282C84.9883 35.2525 80.8076 37.0296 78.8037 37.0296C76.8025 37.0296 76.6394 36.9241 76.1992 37.4144C75.7559 37.9029 76.3501 38.3466 77.5908 38.5449C78.8252 38.7457 78.8469 39.1448 79.9304 39.2339C81.0142 39.3233 81.4111 39.1893 81.4111 39.1893C81.4111 39.1893 78.1201 41.0109 79.1577 41.8986C80.1953 42.7858 80.7925 41.4992 81.8545 41.4769C82.9136 41.4547 83.5078 41.5438 83.7971 42.0746C84.0835 42.6078 85.8967 41.5864 86.8232 40.456C87.75 39.3234 86.8911 42.2978 86.5339 42.9196C86.1829 43.5418 84.3052 45.205 82.5811 46.5607C80.8572 47.9142 77.7017 49.5128 75.1155 49.7782C72.5295 50.0458 71.2029 49.7114 70.9626 50.2887C70.7195 50.8662 71.2275 52.1102 72.9514 52.4202C74.6753 52.7324 76.7073 52.3089 77.0828 52.6429C77.4553 52.9752 76.2209 55.5282 75.094 55.7958C73.9673 56.0612 73.324 56.0612 73.1731 56.8594C73.0161 57.6598 74.6509 58.0811 75.6667 57.9921C76.6858 57.9029 79.0039 56.4603 79.0039 56.4603C79.0039 56.4603 78.2742 58.7033 78.6282 59.5906C76.9934 60.7232 71.8677 66.5606 71.8677 66.5606C71.8677 66.5606 70.8057 65.8737 68.4663 65.4524C66.1235 65.0288 66.3008 63.9653 66.3008 63.9653C66.3008 63.9653 66.698 63.0313 68.3555 63.2094C70.0115 63.3877 73.0376 60.9888 73.2808 59.9453C73.5239 58.9021 72.6189 58.9243 72.6189 58.9243C72.6189 58.9243 72.9729 56.8595 70.6948 56.6386C68.4219 56.4159 67.9805 55.6845 66.3452 54.4847C64.7102 53.2853 64.5347 53.486 64.5347 53.486C64.5347 53.486 65.4622 52.088 66.1235 51.9098C66.7869 51.7334 68.2668 51.8429 69.3713 50.5563C70.4763 49.2677 71.0735 48.7792 71.4705 48.6254C71.8677 48.4692 71.8462 47.4479 70.3655 46.2708C68.8855 45.0957 68.8774 45.1829 68.2163 44.2812C67.553 43.3775 66.7585 42.9927 66.7585 42.9927C66.7585 42.9927 67.2141 41.8986 67.0085 41.3799C66.8008 40.8611 65.918 40.3283 65.948 39.6637C65.9763 38.9971 65.8452 37.2648 64.918 36.1261C63.9883 34.9872 64.0046 33.9498 64.0488 33.4029C64.0911 32.8559 64.063 31.3749 63.3552 30.7688C62.6497 30.1609 63.2666 28.7551 62.6777 28.83C62.0891 28.9049 62.4583 30.3252 62.3833 30.8721C62.311 31.4194 61.8674 31.1822 61.7805 32.7222C61.6919 34.262 62.0447 35.4592 61.47 36.3184C60.8955 37.1776 59.7041 38.45 59.3208 40.0486C58.938 41.6471 60.0127 42.2225 60.0127 42.2225C60.0127 42.2225 60.4841 42.3868 60.4258 43.319C60.3655 44.2508 61.5305 45.2864 61.8088 45.2721C61.5891 46.2203 61.1313 46.7815 60.1455 46.7815C59.1594 46.7815 58.4216 46.0561 57.3167 47.063C56.2141 48.0701 54.8733 47.8612 54.6675 48.9716C54.4597 50.0822 54.6375 50.6899 56.0061 50.8378C57.3774 50.9857 58.6575 50.7771 59.968 50.6738C61.2788 50.5705 61.4116 50.6009 61.4863 51.073C61.5588 51.5469 61.9946 53.2633 60.8008 53.8629C59.6072 54.4625 55.8752 54.8842 52.7605 54.9287C49.6453 54.9733 47.1714 54.3957 47.1714 54.3957C47.1714 54.3957 51.6775 57.1272 53.5991 57.4595C50.3088 58.1036 51.0808 60.4783 51.6555 60.7679C52.23 61.0556 54.085 60.3243 54.9458 60.4784C55.8088 60.6343 57.6194 61.7001 58.3711 62.1216C59.1213 62.5429 60.9338 62.8327 60.9338 62.8327C60.9338 62.8327 60.7341 63.4547 60.3149 63.7646C59.8955 64.0747 58.438 63.4547 57.5085 64.4091C56.5808 65.3632 55.8533 65.4971 55.1897 65.5194C54.5264 65.5395 53.71 65.3694 52.1777 66.4797C50.6472 67.5901 47.1997 66.6583 46.6855 67.2355C46.1697 67.8128 45.9778 68.6113 47.0686 68.9962C48.1575 69.3813 56.4197 70.388 56.4197 70.388C56.4197 70.388 54.9255 71.4236 53.9519 72.6452C52.98 73.8652 53.71 74.8415 54.8369 74.797C55.9622 74.7524 60.6455 73.9765 60.8008 74.331C60.9558 74.6877 57.2139 76.4849 53.7986 76.9286C50.3811 77.3722 37.4514 76.4849 37.4514 76.4849C37.4514 76.4849 40.75 78.2901 42.1633 78.8536C40.5442 79.8299 41.6331 80.8654 42.3711 81.3091C43.1069 81.7527 47.9075 83.0558 47.9075 83.0558C47.9075 83.0558 45.375 83.1143 42.7522 84.6238C45.6694 85.2174 48.113 84.6544 48.113 84.6544C48.113 84.6544 46.9658 85.7789 48.1433 87.0814C47.1997 88.3845 46.8167 89.2415 45.8447 89.3609C44.8728 89.4785 44.1372 89.5091 43.49 90.1007C42.8408 90.6923 42.0767 90.2486 41.2217 90.7226C40.3669 91.1968 38.5706 91.5514 37.6289 92.7062C36.6855 93.859 35.6833 95.4294 33.7981 95.5166L32.1206 93.7414C32.1206 93.7414 32.5625 93.4154 32.9456 93.4741C33.3284 93.5348 33.8867 93.8309 34.4475 93.3262C35.0059 92.8238 34.8586 91.8774 34.8586 91.8774C34.8586 91.8774 36.5686 92.0537 37.6289 91.0182C38.6875 89.9831 38.0928 89.5595 37.8708 89.4726C37.6492 89.3832 36.6995 90.0277 36.1047 89.7378C35.5081 89.4501 35.1973 88.895 34.7117 88.8282C34.2253 88.7614 33.1208 87.6733 33.1208 87.6733C33.1208 87.6733 34.4475 87.4524 35.4194 87.3188C36.3909 87.1848 36.8323 86.4535 36.5464 85.9408C36.2581 85.4325 36.0967 85.3351 34.8586 85.3048C33.6228 85.2763 32.8564 84.8165 32.6511 84.1072C32.4434 83.3962 32.3264 82.7741 31.8848 82.4641C31.4434 82.1541 31.532 81.9313 31.6489 81.8868C31.7661 81.8422 32.282 82.6422 32.8425 82.4783C33.4011 82.3162 33.2839 82.0488 33.4595 81.9901C33.637 81.9313 34.3284 82.0934 35.0059 81.3255C35.6836 80.5555 36.0222 79.7997 35.6108 79.7409C35.1975 79.6821 34.4919 80.2597 34.0339 79.8585C33.5784 79.4594 33.4312 79.6518 33.0784 79.3561C32.7234 79.0603 32.532 77.8324 31.4275 77.6235C31.3101 77.1069 31.3992 76.8699 31.502 76.6775C31.6047 76.485 32.2234 75.5832 32.2234 74.8417C32.2234 74.1022 32.002 73.8065 31.7661 73.081C31.532 72.3559 31.9575 71.8979 31.5156 71.1725C31.0742 70.4473 31.1187 69.7663 30.9128 69.0855C30.7073 68.4048 30.6628 67.7242 30.1772 67.7381C29.6912 67.7524 30.1611 69.2618 30.1328 70.1798C30.1023 71.0975 29.7056 71.8086 29.3081 73.0953C28.9089 74.3838 28.6145 74.9897 28.7478 75.4639C28.8809 75.9382 29.4695 76.0861 29.7056 76.0415C29.8223 76.5743 29.8223 76.5601 29.3667 77.1516C28.9089 77.7434 28.5422 77.7434 27.3203 78.3046C26.0962 78.8677 25.4934 79.7108 25.6689 80.1851C25.8462 80.659 26.157 80.4221 26.657 80.5699C27.1567 80.7178 27.1431 81.1168 27.6147 81.0885C28.0845 81.0581 28.3503 80.8657 28.3503 80.8657C28.3503 80.8657 28.8364 81.4737 28.2031 82.0794C27.5703 82.687 27.7456 82.7601 26.6851 82.7601C25.6267 82.7601 23.4028 83.2483 22.5479 82.8352C23.4028 83.8116 26.4409 83.8685 25.2878 84.2249C23.3284 84.8329 23.9312 84.8329 23.2393 85.0983C22.5479 85.3659 22.1951 85.4386 22.1787 85.9574C22.165 86.474 22.9148 86.3707 23.092 86.4901C23.2695 86.6077 23.417 87.1123 23.9612 87.1547C24.5056 87.1995 25.1104 86.8895 25.5662 86.8895C26.0239 86.8895 26.8625 86.948 27.4514 86.6665C27.2314 87.556 26.8625 87.9408 25.1689 88.4881C23.4756 89.0351 21.0459 89.6127 18.4248 89.2578C19.322 90.5445 23.7998 90.3521 23.7998 90.3521C23.7998 90.3521 22.6206 91.1361 20.207 91.5516C17.7917 91.9649 16.9512 92.3358 16.9512 92.3358C16.9512 92.3358 18.0701 93.1501 18.969 93.3425C19.8665 93.535 20.5295 93.134 21.3259 93.1946C22.1206 93.2534 22.5479 93.7865 23.6528 93.6667C24.7576 93.5492 25.1689 93.134 25.1689 93.134C25.1689 93.134 25.2878 93.9625 26.0962 94.0376C23.9976 96.3088 21.3481 97.7737 19.7576 97.9518C18.1667 98.1304 16.4651 97.575 15.2073 97.9967C17.3062 99.8161 19.2939 100.017 19.9773 100.039C20.6626 100.061 22.7837 100.083 22.7837 100.083C22.7837 100.083 18.322 100.604 18.0339 101.637L0.281494 101.637C0.281494 101.637 -0.351807 102 0.281494 102Z" fill-rule="evenodd" fill="#00A2B6"/>
</svg>
