<svg width="125.000000" height="103.000000" viewBox="0 0 125 103" fill="none" xmlns="http://www.w3.org/2000/svg" xmlns:xlink="http://www.w3.org/1999/xlink">
	<desc>
			Created with Pixso.
	</desc>
	<defs>
		<clipPath id="clip152_564">
			<rect id="елки 2" width="125.000000" height="103.000000" fill="white"/>
		</clipPath>
	</defs>
	<g clip-path="url(#clip152_564)">
		<path id="path" d="M8.19971 102.985L125 102.99C125 102.99 114.22 97.9448 108.802 98.2754C109.862 96.4913 106.885 96.4254 104.048 95.4355C101.201 94.4476 101.201 94.4476 101.201 94.4476C101.201 94.4476 106.95 95.1038 110.128 92.5965C113.298 90.0831 112.57 86.3872 111.584 86.3872C110.589 86.3872 109.659 88.1053 108.94 87.9735C108.213 87.8396 100.409 84.67 97.7637 79.4495C103.256 83.2824 111.917 79.4495 111.917 79.4495C111.917 79.4495 108.674 78.5275 106.822 78.7263C113.105 77.208 114.22 74.2351 114.22 74.2351C114.22 74.2351 107.356 76.4777 104.637 75.1571C101.929 73.8375 100.869 72.7158 100.869 72.7158C100.869 72.7158 104.637 73.1793 107.687 71.9865C96.9707 71.3292 93.0647 66.6392 92.5388 64.5904C92.0139 62.5457 90.6868 60.4298 91.5437 60.0992C92.4099 59.7675 94.9158 61.9492 99.3477 60.0992C98.6011 59.2607 96.3994 58.8682 96.3994 58.8682C96.3994 58.8682 100.408 57.4158 100.408 55.7821C100.408 54.1545 97.0171 55.6976 95.6899 55.1259C94.3723 54.5521 91.4148 51.9965 91.4148 51.2919C91.4148 50.5873 95.1653 49.9301 94.8982 47.8133C94.6404 45.7036 91.4148 47.5063 89.8762 46.4082C88.3286 45.306 90.4939 43.3705 88.8174 41.2124C90.531 40.6819 90.531 39.2295 90.2271 38.6135C89.9136 37.9934 88.1543 37.0282 88.3286 35.3522C88.5039 33.6824 88.5493 33.7247 89.2134 33.7669C89.8762 33.8092 89.6558 32.4041 89.0381 32.1806C88.4204 31.9643 86.394 30.8188 86.3477 29.9803C86.3013 29.1428 85.9517 26.5017 86.1724 24.8752C86.3931 23.2414 85.6382 17.9189 85.4629 17.8283C85.2876 17.7376 84.6709 22.096 84.7163 24.9174C84.7627 27.7316 83.7944 29.0584 83.6562 30.6437C83.5273 32.2238 84.0986 34.1645 83.7944 35.0442C83.481 35.925 82.2932 38.4806 82.9563 39.6673C83.6099 40.856 84.1821 40.9879 83.2231 41.47C82.2468 41.9582 80.0906 43.013 80.5701 44.0678C81.0588 45.1288 81.6755 44.997 81.6755 44.997C81.6755 44.997 79.0315 46.4494 77.0867 46.6668C75.1523 46.8893 75.3267 48.7403 76.7827 49.4449C78.2385 50.1444 79.6482 51.2054 80.2649 51.2054C80.8826 51.2054 82.0251 50.3669 82.3374 50.4997C82.6416 50.6326 83.0469 53.0987 81.3982 54.2194C79.7493 55.3401 79.7493 54.4841 78.4861 55.4071C77.2332 56.3363 77.592 57.3911 76.3391 57.5229C75.0864 57.6558 74.4873 58.4448 74.7173 59.1381C74.947 59.8313 76.9011 60.2959 77.8313 60.2959C78.7532 60.2959 80.6318 60.1332 80.6318 60.1332C80.6318 60.1332 79.4802 62.8701 75.573 65.3836C80.1431 65.878 82.5571 62.2428 82.5571 62.2428C82.5571 62.2428 79.5068 69.1269 75.1028 71.2365C70.6987 73.3523 68.626 72.7796 68.4507 73.6604C66.2029 73.7932 65.7141 73.5275 65.7141 73.5275C65.7141 73.5275 67.6125 75.2869 70.7451 75.8174C73.8684 76.3489 75.4163 75.9513 75.4163 75.9513C75.4163 75.9513 72.9839 77.4037 70.9565 77.3563C74.8811 78.5914 77.9685 76.8732 77.9685 76.8732C77.9685 76.8732 75.4988 80.3106 72.3755 80.1777C73.5178 81.9804 75.0193 81.8949 75.0193 81.8949C75.0193 81.8949 72.9001 89.4239 62.8474 87.8386C68.4033 86.9166 67.6753 83.8366 68.7539 82.7334C71.002 80.4425 71.3154 78.4585 70.5234 78.3689C69.7314 78.2844 58.8867 82.3348 53.1926 78.6821C58.8403 79.6957 63.2444 77.6221 63.2444 77.6221C63.2444 77.6221 57.7812 76.7898 56.7212 75.771C55.6611 74.7646 58.665 74.1012 60.646 74.2764C62.636 74.4515 67.9155 72.4737 69.1045 70.4908C70.2935 68.5078 68.4497 66.2169 68.4497 66.2169C68.4497 66.2169 72.2361 64.7634 72.6333 62.3891C66.9482 65.5175 63.825 65.9099 61.0417 64.7634C58.2598 63.618 57.5132 64.1907 55.9746 63.7086C54.4363 63.2276 52.0583 60.7615 52.0583 60.7615C52.0583 60.7615 53.5051 59.7005 53.9475 58.5602C58.5269 60.23 62.5803 59.3925 63.8611 57.0172C65.1418 54.6356 63.2434 52.7423 61.0417 53.6714C58.8403 54.5934 52.8049 49.2657 52.8049 49.2657C52.8049 49.2657 59.3652 50.2361 64.1746 46.8903C61.3914 47.1983 59.8994 47.2405 59.8994 47.2405C59.8994 47.2405 65.1418 44.6911 65.1882 40.0186C65.28 39.1389 63.198 40.9899 60.1572 41.8696C57.1162 42.7493 50.3352 39.0544 50.3352 39.0544C50.3352 39.0544 55.7993 36.8067 55.7993 33.461C55.7993 30.1153 51.7913 32.0745 49.3401 30.4222C46.8984 28.771 46.0137 28.0479 46.0972 27.7337C46.189 27.4267 50.3538 25.8888 52.2429 20.8382C49.0637 21.7911 47.9771 23.7441 47.9771 23.7441C47.9771 23.7441 48.042 15.456 47.8389 13.2073C47.645 10.9648 45.4619 10.9648 45.4619 9.96973C45.4619 8.98085 45.0845 -0.132385 42.9285 -0.000534058C40.7722 0.132339 42.0437 4.04979 42.7532 4.79764C43.4534 5.54549 42.7996 7.30489 41.8684 8.80573C40.9465 10.3004 40.8547 12.0598 40.8547 12.8087C40.8547 13.5565 39.1873 15.2737 39.1873 15.7619C39.1873 16.244 40.634 18.709 40.2009 20.3376C39.7585 21.9703 38.9573 19.8978 39.3162 23.2002C39.6667 26.5038 41.6931 25.0936 41.426 26.1545C41.1589 27.2094 39.7678 26.6119 38.6345 27.2568C37.5107 27.9016 37.5107 28.5475 36.8384 28.5578C36.1567 28.5763 32.6548 28.0819 31.863 29.0584C31.071 30.0298 31.135 30.6736 31.135 30.6736C31.135 30.6736 29.7253 30.0648 28.822 28.908C29.7625 32.2764 31.0793 33.0356 32.2869 33.5609C33.4941 34.0924 34.9863 33.9111 35.6133 34.5374C34.9038 35.412 31.9094 35.514 31.9094 35.514C31.9094 35.514 33.9912 36.37 36.7744 36.3514C39.5483 36.3339 41.7776 36.3041 41.7776 36.3041C41.7776 36.3041 39.0315 38.1067 36.5806 39.1193C34.1387 40.1319 34.3325 40.8972 32.9231 40.9879C31.5134 41.0785 30.7205 41.2104 30.4812 42.223C30.2327 43.2366 31.3196 44.7312 33.6975 45.0629C36.0742 45.3946 39.6213 45.1289 39.6213 45.1289C39.6213 45.1289 41.1877 45.852 39.8247 46.9315C38.4521 48.01 36.167 47.9204 35.2173 48.9577C34.2686 49.994 33.4941 50.2587 31.9094 50.2587C30.3245 50.2587 30.0388 51.2229 28.8499 51.2899C27.6609 51.3558 25.938 51.2899 25.4131 52.2849C24.8789 53.2738 25.21 54.5697 25.21 54.5697C25.21 54.5697 22.4092 54.2627 21.3955 53.6477C23.4507 55.8964 27.5042 58.2049 30.7205 58.0297C33.9365 57.8546 35.9175 57.4992 35.9175 57.4992C35.9175 57.4992 36.498 58.6869 37.3735 58.6869C34.8677 60.3207 34.4707 61.4661 32.2229 61.5506C29.9749 61.6413 21.5068 61.5506 17.6277 58.1142C20.9358 63.4007 24.6851 64.5039 24.6851 64.5039C24.6851 64.5039 20.5852 64.371 19.8757 66.1314C19.1663 67.8908 20.447 70.6216 23.6714 71.0625C26.8865 71.5023 27.2371 72.8651 28.4714 73.4379C29.7058 74.0106 34.7739 74.3176 34.7739 74.3176C34.7739 74.3176 32.9033 77.8013 29.3284 77.8621C25.7534 77.928 13.2041 74.4319 13.2041 74.4319C13.2041 74.4319 17.6267 79.3805 21.4595 80.8999C17.6008 80.871 15.1672 83.7841 8.55029 81.6549C6.96851 81.146 24.6323 91.1472 23.1311 90.5869C21.0833 89.8225 14.9436 89.7164 7.99365 89.7803C5.36816 89.805 16.708 97.3886 14.0291 97.4349C10.6499 97.4936 5.4248 96.5099 0.153564 95.2037C-1.45288 94.8061 9.76416 103.423 8.19971 102.985Z" fill-rule="evenodd" fill="#00A2B6"/>
	</g>
</svg>
