<svg width="11.000488" height="14.997314" viewBox="0 0 11.0005 14.9973" fill="none" xmlns="http://www.w3.org/2000/svg" xmlns:xlink="http://www.w3.org/1999/xlink">
	<desc>
			Created with Pixso.
	</desc>
	<defs/>
	<path id="path" d="M5.18555 0L5.62988 0C9.39941 0.148438 12.2705 4.21851 10.4272 7.88892C9.94824 8.84229 6.24512 14.9973 5.45557 14.9973C4.67725 14.9973 0.97168 8.77734 0.521973 7.84839C0.222168 7.22729 0 6.30615 0 5.59326C0 4.82349 0.171387 3.97021 0.46582 3.30835C1.29541 1.44214 3.13623 0.0837402 5.18555 0ZM5.49854 8.41284C3.91748 8.41284 2.63818 7.11914 2.63818 5.52563C2.63818 3.92969 3.91992 2.63867 5.49854 2.63867C7.08008 2.63867 8.35889 3.93237 8.35889 5.52563C8.35889 7.12183 7.07715 8.41284 5.49854 8.41284Z" fill-rule="evenodd" fill="#09CED7"/>
</svg>
