<svg width="112.623535" height="83.999268" viewBox="0 0 112.624 83.9993" fill="none" xmlns="http://www.w3.org/2000/svg" xmlns:xlink="http://www.w3.org/1999/xlink">
	<desc>
			Created with Pixso.
	</desc>
	<defs/>
	<path id="path" d="M58.3884 40.9894L54.9871 38.2534L54.9141 38.1852L52.1511 35.1865L52.0164 35.0735L49.6077 33.5593L49.4307 33.3955L47.7192 31.1387L47.4258 30.919L41.6819 28.7919L41.5542 28.7276L35.1179 24.5043L35.052 24.4557L31.3567 21.3026L31.1753 21.1941C30.4482 20.9084 25.9346 19.1285 25.5591 18.7209C25.1826 18.3116 17.1338 13.7371 15.9158 13.0454L15.6682 12.7994L13.6653 9.40253L13.4573 9.17941L4.92798 3.47937C4.80688 3.39828 4.71265 3.27637 4.66211 3.13324L3.70166 0.453186C3.45142 -0.245758 2.50488 -0.100952 2.44067 0.645538C2.3562 1.61008 2.31543 2.78937 2.39844 4.08997C2.44458 4.81686 1.57275 5.13895 1.20166 4.53281C0.799316 3.87802 -0.139893 4.31305 0.0175781 5.08136C0.810791 8.95184 2.09131 14.7291 2.97144 16.3568C4.33252 18.8685 8.68604 24.3343 9.23047 24.7766C9.77466 25.2195 19.436 32.4594 23.5183 33.6415C27.6006 34.823 40.5256 45.3123 40.5256 47.3812C40.5256 49.2331 36.3777 50.3755 33.5566 53.566C33.157 54.0178 33.4541 54.7677 34.0303 54.7677L34.4675 54.7677C34.5999 54.7677 34.7292 54.8124 34.8389 54.8929C35.6829 55.5248 39.6394 58.3469 43.3828 58.6091C47.1555 58.8736 54.5195 57.9554 56.0339 57.7586C56.2097 57.7357 56.3867 57.7921 56.5249 57.9146C58.3271 59.5166 70.8884 70.6405 72.9092 71.4619C75.0442 72.3326 95.748 83.4246 111.945 83.9988C112.456 84.0173 112.793 83.4173 112.534 82.9359C112.001 81.9434 110.72 80.513 107.667 79.7297C107.35 79.6486 107.135 79.3248 107.165 78.9742C107.229 78.2322 107.118 77.0317 105.837 76.6336C103.932 76.0426 97.9448 68.8037 96.7197 68.065C95.4968 67.3258 89.6458 63.0416 88.2847 62.1547C86.9236 61.269 83.5222 57.8705 82.5698 57.4276C81.6182 56.9847 78.7612 53.882 76.8552 52.847C75.8389 52.2962 74.2429 51.2824 72.9729 50.456C72.4065 50.0864 72.6438 49.1397 73.3052 49.1353L88.3591 49.0134C88.8303 49.0106 89.1414 48.4839 88.9529 48.0147C88.7476 47.5048 88.4102 46.9322 87.8772 46.6425C86.9292 46.1281 84.3311 44.4926 83.6746 44.0788L83.3469 43.9826L82.0447 43.9826C81.5466 43.9826 81.2319 43.4039 81.4709 42.9308L82.0952 41.6985C82.2778 41.3367 82.1399 40.8832 81.7954 40.7104C80.5244 40.0758 77.752 38.6734 77.1272 38.2216C76.3584 37.6641 70.9897 34.8728 70.3806 34.5569L70.2637 34.5099L67.5554 33.7433C67.333 33.6807 67.0957 33.7495 66.9309 33.9233C65.7454 35.1921 60.8762 40.3224 59.0127 41.0811C58.8035 41.1667 58.5671 41.1342 58.3884 40.9894Z" fill-rule="evenodd" fill="#E6E6E6"/>
</svg>
