<svg width="245.000000" height="89.000031" viewBox="0 0 245 89" fill="none" xmlns="http://www.w3.org/2000/svg" xmlns:xlink="http://www.w3.org/1999/xlink">
	<desc>
			Created with Pixso.
	</desc>
	<defs/>
	<path id="path" d="M171.953 54.9999C173.91 46.1727 179.5 30.5256 170.717 25.5586C160.641 19.8595 149.985 32.4971 146.496 35.8301C147.321 13.4088 129.875 -0.926285 107.061 0.0466461C95.0308 0.558716 86.2505 4.94748 80.2988 11.6647C72.3384 20.6487 73.4097 29.2138 74.4629 42.335C67.4644 38.0034 60.6362 30.6266 47.854 36.4476C38.2466 40.8228 36.8037 46.2673 38.335 58.7139C21.564 57.4095 2.64746 57.9066 0 74.6154L55.019 74.5335C59.7949 92.7255 79.8384 92.5409 86.0059 80.7502C86.542 79.725 86.9639 78.6546 87.4658 77.7552C88.729 75.4951 88.1455 76.1979 89.4722 74.7802C95.0166 87.0506 109.027 82.6683 115.3 75.2065C115.518 74.9478 115.715 74.695 115.91 74.4429L245 74.2508C241.731 58.6867 231.074 40.6271 216.97 37.7685C197.252 33.7697 181.091 47.4996 171.953 54.9999Z" fill-rule="evenodd" fill="#DADADA"/>
</svg>
