<svg width="237.348633" height="88.541748" viewBox="0 0 237.349 88.5417" fill="none" xmlns="http://www.w3.org/2000/svg" xmlns:xlink="http://www.w3.org/1999/xlink">
	<desc>
			Created with Pixso.
	</desc>
	<path id="path" d="M234.925 12.3225L216.477 0L210.496 3.08032L201.45 8.52173L195.75 9.93262L191.901 12.7612L184.006 20.4204L172.221 25.7317L162.855 33.9102L157.768 32.8181L152.021 33.8606L148.452 30.2769L142.896 27.011L138.632 24.2554L133.786 24.0056L125.707 16.1829L117.708 12.3613L113.43 10.9814L107.899 13.4956L102.844 15.9724L98.7983 18.2578L94.3154 15.9922L90.1021 18.5498L80.9575 24.7581L79.4648 26.2607L77.4639 25.5735L45.2549 48.9436L14.6831 60.1484L1.28223 66.3435C-0.311035 66.9446 -0.540527 67.4844 1.28223 67.9275C4.10596 68.614 11.854 69.0686 18.5771 69.8613C25.3003 70.6541 30.999 71.7852 32.4971 72.7161C33.9946 73.6467 31.291 74.3772 30.4878 75.3513C29.6841 76.3252 30.7798 77.5422 43.0903 77.8645C55.4009 78.1868 78.9263 77.614 92.625 77.3992C106.324 77.1843 110.196 77.3276 110.123 77.7571C110.05 78.1865 106.032 78.9026 104.132 79.4038C102.232 79.905 102.452 80.1914 102.854 80.5137C103.255 80.8359 103.84 81.1938 118.306 81.3013C132.771 81.4087 161.119 81.2656 173.685 81.5876C186.251 81.9099 183.037 82.6975 180.772 83.6641C178.507 84.6306 177.192 85.7761 177.703 86.7786C178.215 87.781 180.553 88.6401 190.745 88.5327C200.937 88.4253 218.982 87.3513 228.151 84.3801C237.32 81.4087 237.612 76.54 237.262 70.9553C237.119 68.6711 236.866 66.2673 234.763 64.1526L234.925 63.9963L234.925 12.3225Z" fill-rule="evenodd" fill="#FFFFFF"/>
	<defs/>
</svg>
