<svg width="1178.000000" height="367.000000" viewBox="0 0 1178 367" fill="none" xmlns="http://www.w3.org/2000/svg" xmlns:xlink="http://www.w3.org/1999/xlink">
	<desc>
			Created with Pixso.
	</desc>
	<defs>
		<linearGradient id="paint_linear_176_522_0" x1="589.000000" y1="0.000000" x2="589.000000" y2="367.000000" gradientUnits="userSpaceOnUse">
			<stop offset="0.315931" stop-color="#E6E6E6"/>
			<stop offset="0.961275" stop-color="#E6E6E6" stop-opacity="0.000000"/>
		</linearGradient>
	</defs>
	<path id="path" d="M904.087 0L1017.5 128.887L1061.58 105.242L1178 275.96L982.96 284.934L982.274 285.391C991.771 293.627 992.827 301.573 992.562 307.994C994.894 327.587 912.423 372.834 842.827 358.451C773.227 344.067 545.159 289.957 403.646 350.46C262.132 410.963 231.788 286.092 180.282 285.026C128.777 283.961 124.193 279.938 127.555 276.718C130.917 273.498 142.228 271.083 135.961 268.007C129.695 264.929 105.853 261.19 77.7236 258.57C49.5952 255.95 17.1792 254.447 5.36572 252.178C-2.26074 250.712 -1.30029 248.927 5.36572 246.941L61.4326 226.461L189.339 189.421L324.093 112.165L332.465 114.438L338.71 109.47L376.97 88.947L394.598 80.4921L413.352 87.9815L430.281 80.4267L451.429 72.2391L474.567 63.9277L492.472 68.4892L525.933 81.1223L559.731 106.983L580.01 107.808L597.851 116.918L621.092 127.714L636.025 139.56L660.066 136.115L679.585 112.102L718.908 84.9324L768.06 67.5806L801.21 42.2379L817.213 32.877L841.218 28.0825L878.939 10.0458L904.087 0Z" fill-rule="evenodd" fill="url(#paint_linear_176_522_0)"/>
</svg>
