<svg width="2062.000000" height="643.000000" viewBox="0 0 2062 643" fill="none" xmlns="http://www.w3.org/2000/svg" xmlns:xlink="http://www.w3.org/1999/xlink">
	<desc>
			Created with Pixso.
	</desc>
	<defs>
		<linearGradient id="paint_linear_176_521_0" x1="1031.000000" y1="0.000000" x2="1031.000000" y2="643.000000" gradientUnits="userSpaceOnUse">
			<stop offset="0.315931" stop-color="#E6E6E6"/>
			<stop offset="0.961275" stop-color="#E6E6E6" stop-opacity="0.000000"/>
		</linearGradient>
	</defs>
	<path id="path" d="M1582.54 0L1781.06 225.816L1858.21 184.389L2062 483.493L1720.6 499.217L1719.4 500.017C1736.02 514.447 1737.87 528.369 1737.4 539.618C1741.49 573.946 1597.13 653.222 1475.31 628.021C1353.48 602.821 954.26 508.017 706.551 614.021C458.842 720.025 405.727 501.245 315.57 499.379C225.415 497.512 217.391 490.463 223.275 484.822C229.161 479.181 248.958 474.95 237.99 469.559C227.021 464.168 185.288 457.617 136.05 453.027C86.8125 448.435 30.0708 445.802 9.39258 441.826C-3.95703 439.259 -2.27637 436.132 9.39258 432.652L107.534 396.77L331.423 331.874L567.301 196.519L581.955 200.5L592.887 191.795L659.857 155.839L690.714 141.026L723.542 154.147L753.175 140.911L790.191 126.566L830.693 112.004L862.035 119.996L920.605 142.13L979.767 187.438L1015.26 188.885L1046.49 204.845L1087.17 223.761L1113.31 244.516L1155.4 238.479L1189.56 196.407L1258.39 148.805L1344.43 118.404L1402.46 74.0027L1430.47 57.6021L1472.49 49.2017L1538.52 17.6008L1582.54 0Z" fill-rule="evenodd" fill="url(#paint_linear_176_521_0)"/>
</svg>
