<svg width="28.071289" height="26.807678" viewBox="0 0 28.0713 26.8077" fill="none" xmlns="http://www.w3.org/2000/svg" xmlns:xlink="http://www.w3.org/1999/xlink">
	<desc>
			Created with Pixso.
	</desc>
	<defs/>
	<path id="Star 1" d="M13.1362 0.562958L9.61084 7.8179C9.46533 8.11777 9.17969 8.32529 8.84961 8.37131L0.863281 9.48392C0.0366211 9.599 -0.293457 10.6155 0.307129 11.1944L6.11523 16.7919C6.35547 17.0232 6.46436 17.3587 6.40625 17.6868L4.99561 25.6306C4.84961 26.4521 5.71484 27.0804 6.45117 26.6876L13.5649 22.8915C13.8589 22.7345 14.2124 22.7345 14.5063 22.8915L21.6201 26.6876C22.3564 27.0804 23.2217 26.4521 23.0757 25.6306L21.665 17.6868C21.6069 17.3587 21.7158 17.0232 21.9561 16.7919L27.7642 11.1944C28.3647 10.6155 28.0347 9.599 27.208 9.48392L19.2217 8.37128C18.8916 8.32529 18.606 8.11777 18.4604 7.8179L14.9351 0.562958C14.5703 -0.187653 13.501 -0.187653 13.1362 0.562958Z" fill-rule="evenodd" fill="#C4C4C4"/>
</svg>
